PathFileType	4	(X/Y/Z)	C:\Users\WrightLab\Desktop\Jo\P2_Trial36.trc
DataRate	CameraRate	NumFrames	NumMarkers	Units	OrigDataRate	OrigDataStartFrame	OrigNumFrames
100.00	100.00	       9	19	mm	100.00	321	       641
Frame#	Time	Headset_Front			Headset_Back			Headset_Left			Headset_Right			Left_Shoulder			Right_Shoulder			Sternum			C7			Left Elbow			Right Elbow			Left Wrist			Right Wrist			Left ASIS			Right ASIS			S2			Left Knee			Right Knee			Left Ankle			Right Ankle			
		X1	Y1	Z1	X2	Y2	Z2	X3	Y3	Z3	X4	Y4	Z4	X5	Y5	Z5	X6	Y6	Z6	X7	Y7	Z7	X8	Y8	Z8	X9	Y9	Z9	X10	Y10	Z10	X11	Y11	Z11	X12	Y12	Z12	X13	Y13	Z13	X14	Y14	Z14	X15	Y15	Z15	X16	Y16	Z16	X17	Y17	Z17	X18	Y18	Z18	X19	Y19	Z19	

321	3.200	-273.90601	1465.13196	810.72729	-380.42859	1694.94983	637.13092				-393.57147	1556.66321	817.33044	-313.57196	1452.23669	517.93066	-527.02753	1445.34473	758.99744	-373.67371	1328.92249	683.17590	-516.48822	1441.31531	574.09943	-255.81055	1172.47791	435.76187	-587.07788	1151.06860	898.54120	-208.30795	1244.01953	559.76642	-530.35431	966.47266	1059.49817	-302.67905	1035.95520	664.99097	-394.53110	1014.83307	764.35895	-526.11292	948.07654	531.21375	-155.77802	490.65341	622.36212	-588.24854	550.67749	755.50751	-117.68751	135.73900	594.33124	-516.14490	122.95444	688.38275	
322	3.210	-266.18286	1463.37183	814.48041	-372.22211	1693.83118	641.77698	-242.52058	1574.82349	642.92676	-385.63739	1555.61316	822.83789	-305.69254	1450.63464	522.81915	-518.70068	1443.87354	763.69171	-364.76077	1327.97229	689.09119	-508.59705	1439.85217	579.15540	-249.26759	1170.39783	441.49805	-576.27405	1149.32336	904.14478	-200.18834	1240.63257	566.12061	-518.31647	967.80298	1066.67480	-295.89725	1034.42932	670.48120	-387.19061	1013.67157	769.64954	-517.19617	946.94128	535.62750	-149.50661	487.08417	624.46198	-587.29474	549.68011	753.53497	-92.94663	130.81035	600.61542	-516.97656	122.50197	690.38306	
323	3.220	-258.06580	1462.27185	819.78790	-365.04721	1692.33582	646.93103	-233.92239	1573.27209	647.65247	-377.36707	1554.37073	827.79169	-297.52872	1449.16663	527.52551	-511.27682	1442.85400	769.28015	-357.28900	1326.34558	693.32745	-500.41599	1438.39111	584.33685	-242.31480	1168.81274	446.13956	-565.95776	1148.38843	909.32336	-192.15668	1239.82861	569.32526	-506.88763	969.58618	1073.40137	-287.01773	1033.95862	675.51172	-378.62436	1012.56409	775.46454	-508.57095	945.50610	540.15497	-141.14099	483.83487	626.64099	-586.25281	549.15485	752.80664	-68.48498	128.26317	607.31720	-516.62964	119.79903	691.28351	
324	3.230	-249.61438	1460.97668	825.09601	-356.50613	1691.36365	651.77917				-369.44232	1553.23523	832.77844	-289.66907	1447.66821	532.88043	-502.72565	1441.01013	774.35828	-348.79980	1325.04895	698.21765	-492.34415	1437.13623	589.54535	-235.52176	1166.59888	451.38916	-555.19360	1146.65674	914.02295	-184.69771	1237.61218	573.62207	-495.35867	970.35571	1079.11353	-278.51395	1032.54517	681.75378	-370.69235	1010.76575	780.79535	-499.36511	943.95251	544.43652	-131.89165	481.95911	627.19568	-584.74774	548.67676	752.14270	-44.33532	128.28004	613.45972	-515.77484	119.62180	693.17310	
325	3.240	-241.59012	1459.39722	828.94196	-347.37708	1689.49438	656.63470	-217.77350	1569.90039	657.63354	-360.83698	1551.66699	837.40594	-281.15283	1446.13464	537.46405	-494.64609	1439.85193	779.00848	-340.59436	1323.73694	703.34149	-483.89828	1435.60010	594.43518	-227.55444	1164.79382	456.36777	-544.62506	1144.73669	918.16699	-176.10997	1235.50061	579.22296	-484.62839	971.71381	1084.88135	-270.67413	1030.95898	686.14301	-361.58649	1009.59576	784.55426	-490.59482	942.40454	548.98254	-124.05702	478.35101	627.51221	-582.30780	549.02612	751.88550	-19.93622	131.18846	619.06885	-515.21277	119.17225	693.29724	
326	3.250	-233.39111	1458.15894	836.31488	-339.36298	1688.59851	661.61383	-208.96590	1568.71716	662.99292	-352.59549	1550.56470	842.55634	-272.64157	1444.96094	542.46722	-486.10938	1438.03735	784.20477	-332.09915	1322.07605	708.09692	-474.56454	1433.57227	600.06268	-219.49570	1163.24280	461.69666	-534.38599	1142.26270	922.24646	-168.02150	1234.55066	582.08356	-473.29199	971.84802	1090.86340	-261.02811	1029.44702	692.46411	-353.31998	1008.13055	789.46210	-481.18912	941.03760	553.57550	-115.63484	475.73367	627.20697	-579.72253	549.35651	752.64325	3.23597	135.92270	625.16461	-514.81268	118.83617	695.13568	
327	3.260	-224.76872	1456.22607	839.16876	-330.08966	1687.01123	666.32074	-199.66309	1566.73889	667.90588	-344.04938	1548.87097	847.37799	-264.12775	1443.28760	547.32434	-477.63181	1436.76550	789.09375	-323.71716	1320.89124	713.24939	-466.95505	1432.48950	604.66583	-211.73042	1162.21692	466.20474	-523.96741	1139.92773	925.62305	-159.50500	1232.78967	589.87482	-463.04834	972.58386	1095.59875	-252.00417	1028.14941	696.31171	-344.15182	1006.90381	795.34869	-471.87244	939.70593	558.02332	-107.27959	472.74890	627.66199	-576.21332	549.41748	753.32239	23.92542	141.95068	631.22845	-514.55554	118.09769	696.37360	
328	3.270	-216.35567	1455.21033	844.40942	-320.83380	1685.52820	671.30927	-191.41982	1565.52637	672.17645	-335.32462	1547.66016	852.15741	-255.06149	1442.02441	552.01282	-468.61908	1435.36108	793.95703	-314.67661	1319.36853	717.56744	-457.77435	1431.03052	609.60760	-203.51593	1160.42456	471.92670	-513.69690	1136.75183	928.53113	-150.53317	1231.57166	594.62299	-452.87054	972.95441	1100.69043	-242.20580	1026.46411	700.85876	-334.63907	1004.80945	800.04462	-463.08395	938.50684	562.65417	-99.55241	470.66724	628.60938	-571.13202	549.01648	754.12781	40.65349	149.26898	635.99719	-514.75781	117.25756	697.13947	
329	3.280	-207.51636	1454.40259	851.19806	-311.59836	1684.33435	676.27631	-182.71082	1564.78125	677.61475	-327.04364	1546.55322	857.25177	-246.27170	1440.89331	556.93652	-460.27499	1433.86768	799.24139	-305.70648	1317.89917	723.32635	-448.63760	1429.22778	614.39233	-194.06418	1158.83752	476.70529	-503.75998	1134.16260	931.80475	-141.48796	1230.63147	598.28253	-443.03436	972.84888	1104.75354	-232.59865	1025.82349	706.47693	-324.86630	1002.57977	804.29596	-453.97552	937.28699	567.37744	-91.02684	468.34625	630.59729	-566.06726	548.20319	755.84113	55.56272	154.73927	641.96326	-513.42969	116.56232	698.26508	
